<svg width="1418" height="853" viewBox="0 0 1418 853" fill="none" xmlns="http://www.w3.org/2000/svg">
<path d="M0 15C0 6.71572 6.71573 0 15 0H1403C1411.28 0 1418 6.71573 1418 15V838C1418 846.284 1411.28 853 1403 853H15C6.71572 853 0 846.284 0 838V15Z" fill="#B67C82"/>
<path d="M197.82 214C195.78 211.48 194.58 208 193.5 204.7L183.72 174.52H179.64L169.86 204.7C168.6 208.48 167.22 211.72 165.24 214H173.34C172.8 213.16 172.44 211.36 172.44 209.38C172.44 207.88 172.62 206.38 172.98 205L174 201.4H182.52L183.48 205C183.9 206.62 184.14 208.48 184.14 210.1C184.14 211.72 183.9 213.22 183.3 214H197.82ZM174.66 199.18L178.44 185.74L181.98 199.18H174.66ZM212.027 210.88H211.127C210.707 208.42 210.647 205.96 210.647 203.68V185.26C210.647 182.02 210.887 178.48 211.787 175H199.967C201.227 178.48 201.707 182.02 201.707 185.26V203.68C201.707 206.92 201.227 210.52 200.087 214H223.187L223.307 202.54C220.847 207.76 216.107 210.88 212.027 210.88ZM246.13 193.78C250.27 192.64 253.63 189.28 253.63 184.06C253.63 177.94 248.47 175 242.29 175H226.51C227.77 178.48 228.19 181.3 228.19 185.26V203.68C228.19 207.64 227.71 210.52 226.51 214H242.11C249.31 214 255.25 210.28 255.25 202.84C255.25 196.78 249.97 194.56 246.13 193.78ZM238.75 177.76C242.53 177.76 244.75 180.34 244.75 185.92C244.75 190.12 243.49 193 240.07 193H237.07V185.26C237.07 182.86 237.07 180.34 237.13 177.76H238.75ZM240.01 211.3C239.29 211.3 238.27 211.24 237.19 210.94C237.07 208.66 237.07 205.84 237.07 203.68V195.64C237.85 195.58 238.57 195.52 239.29 195.52C243.79 195.52 245.95 198.7 245.95 204.52C245.95 209.32 244.39 211.3 240.01 211.3ZM279.986 175C281.486 178.48 281.786 182.2 281.786 185.44V202.42C281.786 207.22 279.746 209.68 275.666 209.68C271.466 209.68 269.006 207.22 269.006 202.42V185.44C269.006 182.2 269.066 178.48 270.446 175H258.386C259.646 178.48 260.006 182.2 260.006 185.44V202.9C260.006 207.82 262.406 214.96 272.606 214.96C283.046 214.96 285.326 207.82 285.326 202.84V185.44C285.326 182.2 285.626 178.48 287.006 175H279.986ZM326.004 183.7C326.004 180.64 326.184 177.28 327.624 175H316.044C316.464 175.6 316.644 176.74 316.644 178.06C316.644 179.86 316.284 182.14 315.684 184L310.044 201.46L304.344 184C303.684 181.96 303.204 179.62 303.204 177.7C303.204 176.56 303.384 175.54 303.864 175H290.904C292.224 177.28 292.524 180.7 292.524 183.7V203.56C292.524 206.8 292.224 210.52 290.904 214H297.504C296.244 210.52 295.884 206.8 295.884 203.56V187.12L305.064 214H308.904L318.144 187.36V203.56C318.084 206.8 317.724 210.52 316.524 214H327.624C326.364 210.52 326.004 206.8 326.004 203.56V183.7Z" fill="#41212A"/>
<path d="M424 161C424 152.716 430.716 146 439 146H660C668.284 146 675 152.716 675 161V225C675 233.284 668.284 240 660 240H439C430.716 240 424 233.284 424 225V161Z" fill="#FFFF99"/>
<path d="M467.8 201.5L469.54 199.88C477.94 192.08 483.28 186.68 483.28 179.9C483.28 173.12 478.18 169.34 471.28 169.34C464.68 169.34 458.26 173.3 458.26 181.22V183.62L467.8 184.34C466.48 181.76 465.76 179.18 465.76 177.2C465.76 174.32 467.08 172.4 469.6 172.4C472.84 172.4 473.92 176.06 473.92 179.96C473.92 187.64 472.54 190.76 462.28 203.42L457.66 209H482.44L483.76 198.32C480.94 200.6 477.16 201.26 467.8 201.5ZM496.014 209H508.194C506.994 205.52 506.574 201.92 506.574 198.68V180.26C506.574 177.02 506.994 173.48 508.314 170H495.834C497.154 173.48 497.634 177.02 497.634 180.26V198.68C497.634 201.92 497.154 205.52 496.014 209ZM522.982 172.76C528.922 173.18 533.422 176.66 536.122 181.46L536.242 170H512.182C513.502 173.48 513.862 177.02 513.862 180.26V198.68C513.862 201.92 513.442 205.52 512.182 209H524.182C522.922 205.52 522.802 201.92 522.802 198.68V191.18C527.602 191.66 530.722 193.76 533.182 197.18V182.54C530.722 185.84 527.602 187.64 522.802 188V180.26C522.802 177.86 522.802 175.34 522.982 172.76ZM567.144 203.12L564.984 195.5C563.964 192.02 563.004 190.94 560.184 190.76C563.304 189.38 567.324 186.26 567.324 180.5C567.324 172.7 561.204 170 554.544 170H539.604C540.924 173.48 541.344 177.02 541.344 180.26V198.68C541.344 201.92 540.924 205.52 539.724 209H552.084C551.124 205.52 550.524 201.92 550.524 198.68V192.56C551.304 192.56 552.144 192.56 552.804 192.62C553.944 192.8 554.724 194.12 555.444 196.88L558.744 209H569.964C568.524 206.96 567.684 205.04 567.144 203.12ZM550.524 172.76C551.064 172.7 551.604 172.7 552.084 172.7C555.684 172.7 557.964 176.12 558.024 181.64C558.024 189.08 555.804 190.16 550.524 190.16V180.26C550.524 177.86 550.464 175.34 550.524 172.76ZM586.36 168.5C589.48 168.5 592.06 166.94 592.06 163.58C592.06 160.28 589.48 158.72 586.36 158.72C583.18 158.72 580.66 160.28 580.66 163.58C580.66 166.94 583.18 168.5 586.36 168.5ZM586.36 161.06C588.52 161.06 589.3 162.2 589.3 163.58C589.3 164.96 588.52 166.16 586.36 166.16C584.2 166.16 583.36 164.96 583.36 163.58C583.36 162.2 584.2 161.06 586.36 161.06ZM602.32 209C600.28 206.48 599.08 203 598 199.7L588.22 169.52H584.14L574.36 199.7C573.1 203.48 571.72 206.72 569.74 209H577.84C577.3 208.16 576.94 206.36 576.94 204.38C576.94 202.88 577.12 201.38 577.48 200L578.5 196.4H587.02L587.98 200C588.4 201.62 588.64 203.48 588.64 205.1C588.64 206.72 588.4 208.22 587.8 209H602.32ZM579.16 194.18L582.94 180.74L586.48 194.18H579.16ZM626.247 170C627.447 173.48 627.867 177.2 627.867 180.44V194.72L616.047 176C614.787 174.14 614.007 172.82 614.007 171.44C614.007 170.96 614.127 170.48 614.307 170H604.467C605.727 172.28 606.147 175.4 606.147 178.4V198.56C606.147 201.8 605.667 205.52 604.467 209H611.187C610.047 205.52 609.567 201.8 609.567 198.56V184.04L625.947 209H631.407V180.44C631.407 177.2 631.767 173.48 633.027 170H626.247Z" fill="#41212A"/>
<mask id="mask0_39_164" style="mask-type:alpha" maskUnits="userSpaceOnUse" x="702" y="147" width="93" height="93">
<rect x="702" y="147" width="92.5091" height="92.5091" rx="15" fill="#D9D9D9"/>
</mask>
<g mask="url(#mask0_39_164)">
<path d="M733.222 203.566C731.732 205.056 729.316 205.056 727.825 203.566V203.566C726.335 202.075 726.335 199.659 727.825 198.169L737.648 188.347C743.506 182.489 753.003 182.489 758.861 188.347L768.684 198.169C770.174 199.659 770.174 202.075 768.684 203.566V203.566C767.193 205.056 764.777 205.056 763.287 203.566L757.12 197.398C752.224 192.502 744.285 192.502 739.389 197.398L733.222 203.566Z" fill="#41212A"/>
</g>
<path d="M793.931 173.898C796.571 173.898 798.311 171.858 798.311 169.338C798.311 166.818 796.571 164.718 793.931 164.718C791.351 164.718 789.611 166.818 789.611 169.338C789.611 171.858 791.351 173.898 793.931 173.898ZM804.311 173.898C806.951 173.898 808.691 171.858 808.691 169.338C808.691 166.818 806.951 164.718 804.311 164.718C801.731 164.718 799.991 166.818 799.991 169.338C799.991 171.858 801.731 173.898 804.311 173.898ZM815.111 214.218C813.071 211.698 811.871 208.218 810.791 204.918L801.011 174.738H796.931L787.151 204.918C785.891 208.698 784.511 211.938 782.531 214.218H790.631C790.091 213.378 789.731 211.578 789.731 209.598C789.731 208.098 789.911 206.598 790.271 205.218L791.291 201.618H799.811L800.771 205.218C801.191 206.838 801.431 208.698 801.431 210.318C801.431 211.938 801.191 213.438 800.591 214.218H815.111ZM791.951 199.398L795.731 185.958L799.271 199.398H791.951ZM829.318 211.098H828.418C827.998 208.638 827.938 206.178 827.938 203.898V185.478C827.938 182.238 828.178 178.698 829.078 175.218H817.258C818.518 178.698 818.998 182.238 818.998 185.478V203.898C818.998 207.138 818.518 210.738 817.378 214.218H840.478L840.598 202.758C838.138 207.978 833.398 211.098 829.318 211.098ZM856.401 175.218H843.801C845.001 178.518 845.481 182.178 845.481 185.478V203.898C845.481 207.138 845.001 210.738 843.801 214.218H856.581C866.121 214.218 873.681 207.558 873.681 193.878C873.681 179.598 864.981 175.218 856.401 175.218ZM855.801 211.518H854.781C854.481 208.878 854.421 206.238 854.421 203.898V185.478C854.421 183.078 854.481 180.618 854.541 178.038H855.921C861.801 178.038 864.381 185.778 864.381 195.618C864.381 204.318 862.761 211.518 855.801 211.518ZM905.325 208.338L903.165 200.718C902.145 197.238 901.185 196.158 898.365 195.978C901.485 194.598 905.505 191.478 905.505 185.718C905.505 177.918 899.385 175.218 892.725 175.218H877.785C879.105 178.698 879.525 182.238 879.525 185.478V203.898C879.525 207.138 879.105 210.738 877.905 214.218H890.265C889.305 210.738 888.705 207.138 888.705 203.898V197.778C889.485 197.778 890.325 197.778 890.985 197.838C892.125 198.018 892.905 199.338 893.625 202.098L896.925 214.218H908.145C906.705 212.178 905.865 210.258 905.325 208.338ZM888.705 177.978C889.245 177.918 889.785 177.918 890.265 177.918C893.865 177.918 896.145 181.338 896.205 186.858C896.205 194.298 893.985 195.378 888.705 195.378V185.478C888.705 183.078 888.645 180.558 888.705 177.978ZM921.225 211.338C920.985 208.758 920.925 206.238 920.925 203.898V195.618H921.345C925.125 195.618 928.245 197.118 931.845 200.898V187.818C928.245 191.538 925.125 192.618 921.345 192.618H920.925V185.478C920.925 183.078 920.925 180.618 921.165 178.038H921.345C928.605 178.758 932.205 181.818 934.905 186.678L935.085 175.218H910.305C911.565 178.698 911.985 182.238 911.985 185.478V203.898C911.985 207.138 911.505 210.738 910.305 214.218H935.025L934.845 202.758C932.325 207.438 929.145 210.978 921.225 211.338Z" fill="#41212A"/>
<mask id="mask1_39_164" style="mask-type:alpha" maskUnits="userSpaceOnUse" x="996" y="147" width="93" height="93">
<rect x="1088.51" y="239.509" width="92.5091" height="92.5091" rx="15" transform="rotate(-180 1088.51 239.509)" fill="#D9D9D9"/>
</mask>
<g mask="url(#mask1_39_164)">
<path d="M1057.29 182.944C1058.78 181.453 1061.19 181.453 1062.68 182.944V182.944C1064.17 184.434 1064.17 186.85 1062.68 188.34L1052.86 198.162C1047 204.02 1037.51 204.02 1031.65 198.162L1021.83 188.34C1020.34 186.85 1020.34 184.434 1021.83 182.944V182.944C1023.32 181.453 1025.73 181.453 1027.22 182.944L1033.39 189.111C1038.29 194.007 1046.22 194.007 1051.12 189.111L1057.29 182.944Z" fill="#41212A"/>
</g>
<path d="M1096.46 177.7C1100.6 177.7 1103.06 180.16 1105.76 187.66L1105.52 175H1076.72L1076.36 187.66C1079.18 180.64 1081.64 177.7 1085.78 177.7H1086.62V203.68C1086.62 206.92 1086.08 210.52 1084.7 214H1097.48C1095.98 210.52 1095.56 206.92 1095.56 203.68V177.7H1096.46ZM1108.28 214H1120.46C1119.26 210.52 1118.84 206.92 1118.84 203.68V185.26C1118.84 182.02 1119.26 178.48 1120.58 175H1108.1C1109.42 178.48 1109.9 182.02 1109.9 185.26V203.68C1109.9 206.92 1109.42 210.52 1108.28 214ZM1137.04 175H1124.44C1125.64 178.3 1126.12 181.96 1126.12 185.26V203.68C1126.12 206.92 1125.64 210.52 1124.44 214H1137.22C1146.76 214 1154.32 207.34 1154.32 193.66C1154.32 179.38 1145.62 175 1137.04 175ZM1136.44 211.3H1135.42C1135.12 208.66 1135.06 206.02 1135.06 203.68V185.26C1135.06 182.86 1135.12 180.4 1135.18 177.82H1136.56C1142.44 177.82 1145.02 185.56 1145.02 195.4C1145.02 204.1 1143.4 211.3 1136.44 211.3ZM1158.61 214H1170.79C1169.59 210.52 1169.17 206.92 1169.17 203.68V185.26C1169.17 182.02 1169.59 178.48 1170.91 175H1158.43C1159.75 178.48 1160.23 182.02 1160.23 185.26V203.68C1160.23 206.92 1159.75 210.52 1158.61 214ZM1190.92 194.14C1194.22 197.38 1195.36 203.92 1195.36 210.52H1195.12C1189.18 210.52 1183.54 201.88 1183.54 191.14C1183.54 182.68 1185.16 178.54 1189.66 178.54C1193.2 178.54 1196.38 182.14 1199.68 187.66L1202.32 175.42C1200.4 174.7 1198 174.22 1194.04 174.22C1183.18 174.22 1175.08 181.9 1175.08 195.22C1175.08 206.74 1181.38 214.96 1191.1 214.96C1195.48 214.96 1199.8 213.76 1202.8 211.96V194.14H1190.92ZM1238.2 214C1236.16 211.48 1234.96 208 1233.88 204.7L1224.1 174.52H1220.02L1210.24 204.7C1208.98 208.48 1207.6 211.72 1205.62 214H1213.72C1213.18 213.16 1212.82 211.36 1212.82 209.38C1212.82 207.88 1213 206.38 1213.36 205L1214.38 201.4H1222.9L1223.86 205C1224.28 206.62 1224.52 208.48 1224.52 210.1C1224.52 211.72 1224.28 213.22 1223.68 214H1238.2ZM1215.04 199.18L1218.82 185.74L1222.36 199.18H1215.04ZM1267.88 208.12L1265.72 200.5C1264.7 197.02 1263.74 195.94 1260.92 195.76C1264.04 194.38 1268.06 191.26 1268.06 185.5C1268.06 177.7 1261.94 175 1255.28 175H1240.34C1241.66 178.48 1242.08 182.02 1242.08 185.26V203.68C1242.08 206.92 1241.66 210.52 1240.46 214H1252.82C1251.86 210.52 1251.26 206.92 1251.26 203.68V197.56C1252.04 197.56 1252.88 197.56 1253.54 197.62C1254.68 197.8 1255.46 199.12 1256.18 201.88L1259.48 214H1270.7C1269.26 211.96 1268.42 210.04 1267.88 208.12ZM1251.26 177.76C1251.8 177.7 1252.34 177.7 1252.82 177.7C1256.42 177.7 1258.7 181.12 1258.76 186.64C1258.76 194.08 1256.54 195.16 1251.26 195.16V185.26C1251.26 182.86 1251.2 180.34 1251.26 177.76ZM1283.78 211.12C1283.54 208.54 1283.48 206.02 1283.48 203.68V195.4H1283.9C1287.68 195.4 1290.8 196.9 1294.4 200.68V187.6C1290.8 191.32 1287.68 192.4 1283.9 192.4H1283.48V185.26C1283.48 182.86 1283.48 180.4 1283.72 177.82H1283.9C1291.16 178.54 1294.76 181.6 1297.46 186.46L1297.64 175H1272.86C1274.12 178.48 1274.54 182.02 1274.54 185.26V203.68C1274.54 206.92 1274.06 210.52 1272.86 214H1297.58L1297.4 202.54C1294.88 207.22 1291.7 210.76 1283.78 211.12Z" fill="#41212A"/>
<line x1="118" y1="256.5" x2="1309" y2="256.5" stroke="#41212A" stroke-width="3"/>
<line x1="116" y1="126.5" x2="1307" y2="126.5" stroke="#41212A" stroke-width="3"/>
<path d="M123.34 328.96C128.08 328.96 132.76 334.54 134.98 338.98L136.72 325.42C134.26 324.88 131.2 324.4 128.68 324.4C119.38 324.4 113.44 330.16 113.44 336.7C113.44 342.16 116.26 344.14 120.28 346.6L126.94 350.68C130.66 352.96 131.74 354.64 131.74 357.16C131.74 358.96 130.42 360.46 128.38 360.46C125.32 360.46 122.38 357.76 119.56 350.62L112.54 355.18C114.7 361.9 120.16 364.96 125.26 364.96C132.1 364.96 137.8 359.5 137.8 352.24C137.8 347.32 134.8 344.56 131.5 342.4L126.58 339.28C121.6 336.1 120.16 334.36 120.16 331.84C120.16 330.1 121.48 328.96 123.34 328.96ZM151.965 350.14C160.305 350.14 168.225 346.18 168.225 336.52C168.225 326.08 160.005 325 155.025 325H141.225C142.545 328.48 142.965 332.02 142.965 335.26V353.68C142.965 356.92 142.545 360.52 141.345 364H153.525C152.505 360.52 151.905 356.92 151.905 353.68V350.14H151.965ZM152.085 327.64C156.285 327.64 158.925 330.16 158.925 337.18C158.925 344.02 156.765 347.56 152.445 347.56H151.905V335.26C151.905 332.8 151.905 330.28 152.025 327.64H152.085ZM182.789 361.12C182.549 358.54 182.489 356.02 182.489 353.68V345.4H182.909C186.689 345.4 189.809 346.9 193.409 350.68V337.6C189.809 341.32 186.689 342.4 182.909 342.4H182.489V335.26C182.489 332.86 182.489 330.4 182.729 327.82H182.909C190.169 328.54 193.769 331.6 196.469 336.46L196.649 325H171.869C173.129 328.48 173.549 332.02 173.549 335.26V353.68C173.549 356.92 173.069 360.52 171.869 364H196.589L196.409 352.54C193.889 357.22 190.709 360.76 182.789 361.12ZM212.289 360.88H211.389C210.969 358.42 210.909 355.96 210.909 353.68V335.26C210.909 332.02 211.149 328.48 212.049 325H200.229C201.489 328.48 201.969 332.02 201.969 335.26V353.68C201.969 356.92 201.489 360.52 200.349 364H223.449L223.569 352.54C221.109 357.76 216.369 360.88 212.289 360.88ZM248.552 325C249.752 328.48 250.172 332.2 250.172 335.44V349.72L238.352 331C237.092 329.14 236.312 327.82 236.312 326.44C236.312 325.96 236.432 325.48 236.612 325H226.772C228.032 327.28 228.452 330.4 228.452 333.4V353.56C228.452 356.8 227.972 360.52 226.772 364H233.492C232.352 360.52 231.872 356.8 231.872 353.56V339.04L248.252 364H253.712V335.44C253.712 332.2 254.072 328.48 255.332 325H248.552ZM259.354 364H271.534C270.334 360.52 269.914 356.92 269.914 353.68V335.26C269.914 332.02 270.334 328.48 271.654 325H259.174C260.494 328.48 260.974 332.02 260.974 335.26V353.68C260.974 356.92 260.494 360.52 259.354 364ZM297.302 325C298.502 328.48 298.922 332.2 298.922 335.44V349.72L287.102 331C285.842 329.14 285.062 327.82 285.062 326.44C285.062 325.96 285.182 325.48 285.362 325H275.522C276.782 327.28 277.202 330.4 277.202 333.4V353.56C277.202 356.8 276.722 360.52 275.522 364H282.242C281.102 360.52 280.622 356.8 280.622 353.56V339.04L297.002 364H302.462V335.44C302.462 332.2 302.822 328.48 304.082 325H297.302ZM324.064 344.14C327.364 347.38 328.504 353.92 328.504 360.52H328.264C322.324 360.52 316.684 351.88 316.684 341.14C316.684 332.68 318.304 328.54 322.804 328.54C326.344 328.54 329.524 332.14 332.824 337.66L335.464 325.42C333.544 324.7 331.144 324.22 327.184 324.22C316.324 324.22 308.224 331.9 308.224 345.22C308.224 356.74 314.524 364.96 324.244 364.96C328.624 364.96 332.944 363.76 335.944 361.96V344.14H324.064ZM371.343 364C369.303 361.48 368.103 358 367.023 354.7L357.243 324.52H353.163L343.383 354.7C342.123 358.48 340.743 361.72 338.763 364H346.863C346.323 363.16 345.963 361.36 345.963 359.38C345.963 357.88 346.143 356.38 346.503 355L347.523 351.4H356.043L357.003 355C357.423 356.62 357.663 358.48 357.663 360.1C357.663 361.72 357.423 363.22 356.823 364H371.343ZM348.183 349.18L351.963 335.74L355.503 349.18H348.183ZM401.03 358.12L398.87 350.5C397.85 347.02 396.89 345.94 394.07 345.76C397.19 344.38 401.21 341.26 401.21 335.5C401.21 327.7 395.09 325 388.43 325H373.49C374.81 328.48 375.23 332.02 375.23 335.26V353.68C375.23 356.92 374.81 360.52 373.61 364H385.97C385.01 360.52 384.41 356.92 384.41 353.68V347.56C385.19 347.56 386.03 347.56 386.69 347.62C387.83 347.8 388.61 349.12 389.33 351.88L392.63 364H403.85C402.41 361.96 401.57 360.04 401.03 358.12ZM384.41 327.76C384.95 327.7 385.49 327.7 385.97 327.7C389.57 327.7 391.85 331.12 391.91 336.64C391.91 344.08 389.69 345.16 384.41 345.16V335.26C384.41 332.86 384.35 330.34 384.41 327.76Z" fill="#41212A"/>
<path d="M426 316C426 307.716 432.716 301 441 301H662C670.284 301 677 307.716 677 316V380C677 388.284 670.284 395 662 395H441C432.716 395 426 388.284 426 380V316Z" fill="#FFFF99"/>
<path d="M474.677 333L475.837 331.92C481.437 326.72 484.997 323.12 484.997 318.6C484.997 314.08 481.597 311.56 476.997 311.56C472.597 311.56 468.317 314.2 468.317 319.48V321.08L474.677 321.56C473.797 319.84 473.317 318.12 473.317 316.8C473.317 314.88 474.197 313.6 475.877 313.6C478.037 313.6 478.757 316.04 478.757 318.64C478.757 323.76 477.837 325.84 470.997 334.28L467.917 338H484.437L485.317 330.88C483.437 332.4 480.917 332.84 474.677 333ZM491.304 338.6C493.304 338.6 494.664 336.92 494.664 335.24C494.664 333.52 493.304 331.88 491.264 331.88C489.264 331.88 487.904 333.52 487.904 335.24C487.904 336.92 489.264 338.6 491.304 338.6ZM506.147 321.64C504.427 321.64 502.227 322.08 500.507 323.16L501.067 317.24H507.147C510.227 317.24 511.147 317.28 512.747 317.56L512.867 312H499.387L498.267 326.32C499.907 325.48 500.987 325.24 502.787 325.24C506.827 325.24 509.267 328.88 509.267 332.72C509.267 335.56 508.387 336.04 507.467 336.04C506.147 336.04 504.387 334.24 502.467 330.04L497.107 332.76C499.067 337.12 502.787 338.48 505.587 338.48C509.867 338.48 514.467 335.24 514.467 329.12C514.467 324.28 511.467 321.64 506.147 321.64ZM526.837 338.52C532.797 338.52 536.997 333.44 536.997 325C536.997 317.2 533.437 311.48 527.197 311.48C521.237 311.48 517.037 316.56 517.037 324.96C517.037 332.8 520.637 338.52 526.837 338.52ZM527.797 336.08C524.917 336.08 523.397 331.28 523.317 322.64C523.317 317.68 523.677 313.92 526.237 313.92C529.117 313.92 530.637 318.72 530.717 327.36C530.717 332.32 530.357 336.08 527.797 336.08ZM549.259 338.52C555.219 338.52 559.419 333.44 559.419 325C559.419 317.2 555.859 311.48 549.619 311.48C543.659 311.48 539.459 316.56 539.459 324.96C539.459 332.8 543.059 338.52 549.259 338.52ZM550.219 336.08C547.339 336.08 545.819 331.28 545.739 322.64C545.739 317.68 546.099 313.92 548.659 313.92C551.539 313.92 553.059 318.72 553.139 327.36C553.139 332.32 552.779 336.08 550.219 336.08ZM564.468 338.6C566.468 338.6 567.828 336.92 567.828 335.24C567.828 333.52 566.468 331.88 564.428 331.88C562.428 331.88 561.068 333.52 561.068 335.24C561.068 336.92 562.428 338.6 564.468 338.6ZM579.298 338.52C585.258 338.52 589.458 333.44 589.458 325C589.458 317.2 585.898 311.48 579.658 311.48C573.698 311.48 569.498 316.56 569.498 324.96C569.498 332.8 573.098 338.52 579.298 338.52ZM580.258 336.08C577.378 336.08 575.858 331.28 575.778 322.64C575.778 317.68 576.138 313.92 578.698 313.92C581.578 313.92 583.098 318.72 583.178 327.36C583.178 332.32 582.818 336.08 580.258 336.08ZM601.72 338.52C607.68 338.52 611.88 333.44 611.88 325C611.88 317.2 608.32 311.48 602.08 311.48C596.12 311.48 591.92 316.56 591.92 324.96C591.92 332.8 595.52 338.52 601.72 338.52ZM602.68 336.08C599.8 336.08 598.28 331.28 598.2 322.64C598.2 317.68 598.56 313.92 601.12 313.92C604 313.92 605.52 318.72 605.6 327.36C605.6 332.32 605.24 336.08 602.68 336.08ZM624.142 338.52C630.102 338.52 634.302 333.44 634.302 325C634.302 317.2 630.742 311.48 624.502 311.48C618.542 311.48 614.342 316.56 614.342 324.96C614.342 332.8 617.942 338.52 624.142 338.52ZM625.102 336.08C622.222 336.08 620.702 331.28 620.622 322.64C620.622 317.68 620.982 313.92 623.542 313.92C626.422 313.92 627.942 318.72 628.022 327.36C628.022 332.32 627.662 336.08 625.102 336.08ZM505.888 385H514.008C513.208 382.68 512.928 380.28 512.928 378.12V365.84C512.928 363.68 513.208 361.32 514.088 359H505.768C506.648 361.32 506.968 363.68 506.968 365.84V378.12C506.968 380.28 506.648 382.68 505.888 385ZM523.867 360.84C527.827 361.12 530.827 363.44 532.627 366.64L532.707 359H516.667C517.547 361.32 517.787 363.68 517.787 365.84V378.12C517.787 380.28 517.507 382.68 516.667 385H524.667C523.827 382.68 523.747 380.28 523.747 378.12V373.12C526.947 373.44 529.027 374.84 530.667 377.12V367.36C529.027 369.56 526.947 370.76 523.747 371V365.84C523.747 364.24 523.747 362.56 523.867 360.84ZM553.308 381.08L551.868 376C551.188 373.68 550.548 372.96 548.668 372.84C550.748 371.92 553.428 369.84 553.428 366C553.428 360.8 549.348 359 544.908 359H534.948C535.828 361.32 536.108 363.68 536.108 365.84V378.12C536.108 380.28 535.828 382.68 535.028 385H543.268C542.628 382.68 542.228 380.28 542.228 378.12V374.04C542.748 374.04 543.308 374.04 543.748 374.08C544.508 374.2 545.028 375.08 545.508 376.92L547.708 385H555.188C554.228 383.64 553.668 382.36 553.308 381.08ZM542.228 360.84C542.588 360.8 542.948 360.8 543.268 360.8C545.668 360.8 547.188 363.08 547.228 366.76C547.228 371.72 545.748 372.44 542.228 372.44V365.84C542.228 364.24 542.188 362.56 542.228 360.84ZM566.119 358C568.199 358 569.919 356.96 569.919 354.72C569.919 352.52 568.199 351.48 566.119 351.48C563.999 351.48 562.319 352.52 562.319 354.72C562.319 356.96 563.999 358 566.119 358ZM566.119 353.04C567.559 353.04 568.079 353.8 568.079 354.72C568.079 355.64 567.559 356.44 566.119 356.44C564.679 356.44 564.119 355.64 564.119 354.72C564.119 353.8 564.679 353.04 566.119 353.04ZM576.759 385C575.399 383.32 574.599 381 573.879 378.8L567.359 358.68H564.639L558.119 378.8C557.279 381.32 556.359 383.48 555.039 385H560.439C560.079 384.44 559.839 383.24 559.839 381.92C559.839 380.92 559.959 379.92 560.199 379L560.879 376.6H566.559L567.199 379C567.479 380.08 567.639 381.32 567.639 382.4C567.639 383.48 567.479 384.48 567.079 385H576.759ZM561.319 375.12L563.839 366.16L566.199 375.12H561.319ZM592.71 359C593.51 361.32 593.79 363.8 593.79 365.96V375.48L585.91 363C585.07 361.76 584.55 360.88 584.55 359.96C584.55 359.64 584.63 359.32 584.75 359H578.19C579.03 360.52 579.31 362.6 579.31 364.6V378.04C579.31 380.2 578.99 382.68 578.19 385H582.67C581.91 382.68 581.59 380.2 581.59 378.04V368.36L592.51 385H596.15V365.96C596.15 363.8 596.39 361.32 597.23 359H592.71Z" fill="#41212A"/>
<mask id="mask2_39_164" style="mask-type:alpha" maskUnits="userSpaceOnUse" x="704" y="302" width="93" height="93">
<rect x="704" y="302" width="92.5091" height="92.5091" rx="15" fill="#D9D9D9"/>
</mask>
<g mask="url(#mask2_39_164)">
<path d="M735.222 358.565C733.732 360.056 731.316 360.056 729.825 358.565V358.565C728.335 357.075 728.335 354.659 729.825 353.169L739.648 343.347C745.506 337.489 755.003 337.489 760.861 343.347L770.684 353.169C772.174 354.659 772.174 357.075 770.684 358.565V358.565C769.193 360.056 766.777 360.056 765.287 358.565L759.12 352.398C754.224 347.502 746.285 347.502 741.389 352.398L735.222 358.565Z" fill="#41212A"/>
</g>
<path d="M821.311 338.918C821.311 335.858 821.491 332.498 822.931 330.218H811.351C811.771 330.818 811.951 331.958 811.951 333.278C811.951 335.078 811.591 337.358 810.991 339.218L805.351 356.678L799.651 339.218C798.991 337.178 798.511 334.838 798.511 332.918C798.511 331.778 798.691 330.758 799.171 330.218H786.211C787.531 332.498 787.831 335.918 787.831 338.918V358.778C787.831 362.018 787.531 365.738 786.211 369.218H792.811C791.551 365.738 791.191 362.018 791.191 358.778V342.338L800.371 369.218H804.211L813.451 342.578V358.778C813.391 362.018 813.031 365.738 811.831 369.218H822.931C821.671 365.738 821.311 362.018 821.311 358.778V338.918ZM837.678 366.338C837.438 363.758 837.378 361.238 837.378 358.898V350.618H837.798C841.578 350.618 844.698 352.118 848.298 355.898V342.818C844.698 346.538 841.578 347.618 837.798 347.618H837.378V340.478C837.378 338.078 837.378 335.618 837.618 333.038H837.798C845.058 333.758 848.658 336.818 851.358 341.678L851.538 330.218H826.758C828.018 333.698 828.438 337.238 828.438 340.478V358.898C828.438 362.138 827.958 365.738 826.758 369.218H851.478L851.298 357.758C848.778 362.438 845.598 365.978 837.678 366.338ZM882.657 363.338L880.497 355.718C879.477 352.238 878.517 351.158 875.697 350.978C878.817 349.598 882.837 346.478 882.837 340.718C882.837 332.918 876.717 330.218 870.057 330.218H855.117C856.437 333.698 856.857 337.238 856.857 340.478V358.898C856.857 362.138 856.437 365.738 855.237 369.218H867.597C866.637 365.738 866.037 362.138 866.037 358.898V352.778C866.817 352.778 867.657 352.778 868.317 352.838C869.457 353.018 870.237 354.338 870.957 357.098L874.257 369.218H885.477C884.037 367.178 883.197 365.258 882.657 363.338ZM866.037 332.978C866.577 332.918 867.117 332.918 867.597 332.918C871.197 332.918 873.477 336.338 873.537 341.858C873.537 349.298 871.317 350.378 866.037 350.378V340.478C866.037 338.078 865.977 335.558 866.037 332.978Z" fill="#41212A"/>
<mask id="mask3_39_164" style="mask-type:alpha" maskUnits="userSpaceOnUse" x="998" y="302" width="93" height="93">
<rect x="1090.51" y="394.509" width="92.5091" height="92.5091" rx="15" transform="rotate(-180 1090.51 394.509)" fill="#D9D9D9"/>
</mask>
<g mask="url(#mask3_39_164)">
<path d="M1059.29 337.944C1060.78 336.453 1063.19 336.453 1064.68 337.944V337.944C1066.17 339.434 1066.17 341.85 1064.68 343.34L1054.86 353.162C1049 359.02 1039.51 359.02 1033.65 353.162L1023.83 343.34C1022.34 341.85 1022.34 339.434 1023.83 337.944V337.944C1025.32 336.453 1027.73 336.453 1029.22 337.944L1035.39 344.111C1040.29 349.007 1048.22 349.007 1053.12 344.111L1059.29 337.944Z" fill="#41212A"/>
</g>
<path d="M1115.02 338.7C1115.02 335.64 1115.2 332.28 1116.64 330H1105.06C1105.48 330.6 1105.66 331.74 1105.66 333.06C1105.66 334.86 1105.3 337.14 1104.7 339L1099.06 356.46L1093.36 339C1092.7 336.96 1092.22 334.62 1092.22 332.7C1092.22 331.56 1092.4 330.54 1092.88 330H1079.92C1081.24 332.28 1081.54 335.7 1081.54 338.7V358.56C1081.54 361.8 1081.24 365.52 1079.92 369H1086.52C1085.26 365.52 1084.9 361.8 1084.9 358.56V342.12L1094.08 369H1097.92L1107.16 342.36V358.56C1107.1 361.8 1106.74 365.52 1105.54 369H1116.64C1115.38 365.52 1115.02 361.8 1115.02 358.56V338.7ZM1120.65 369H1132.83C1131.63 365.52 1131.21 361.92 1131.21 358.68V340.26C1131.21 337.02 1131.63 333.48 1132.95 330H1120.47C1121.79 333.48 1122.27 337.02 1122.27 340.26V358.68C1122.27 361.92 1121.79 365.52 1120.65 369ZM1158.59 330C1159.79 333.48 1160.21 337.2 1160.21 340.44V354.72L1148.39 336C1147.13 334.14 1146.35 332.82 1146.35 331.44C1146.35 330.96 1146.47 330.48 1146.65 330H1136.81C1138.07 332.28 1138.49 335.4 1138.49 338.4V358.56C1138.49 361.8 1138.01 365.52 1136.81 369H1143.53C1142.39 365.52 1141.91 361.8 1141.91 358.56V344.04L1158.29 369H1163.75V340.44C1163.75 337.2 1164.11 333.48 1165.37 330H1158.59ZM1181.82 330H1169.22C1170.42 333.3 1170.9 336.96 1170.9 340.26V358.68C1170.9 361.92 1170.42 365.52 1169.22 369H1182C1191.54 369 1199.1 362.34 1199.1 348.66C1199.1 334.38 1190.4 330 1181.82 330ZM1181.22 366.3H1180.2C1179.9 363.66 1179.84 361.02 1179.84 358.68V340.26C1179.84 337.86 1179.9 335.4 1179.96 332.82H1181.34C1187.22 332.82 1189.8 340.56 1189.8 350.4C1189.8 359.1 1188.18 366.3 1181.22 366.3ZM1230.74 363.12L1228.58 355.5C1227.56 352.02 1226.6 350.94 1223.78 350.76C1226.9 349.38 1230.92 346.26 1230.92 340.5C1230.92 332.7 1224.8 330 1218.14 330H1203.2C1204.52 333.48 1204.94 337.02 1204.94 340.26V358.68C1204.94 361.92 1204.52 365.52 1203.32 369H1215.68C1214.72 365.52 1214.12 361.92 1214.12 358.68V352.56C1214.9 352.56 1215.74 352.56 1216.4 352.62C1217.54 352.8 1218.32 354.12 1219.04 356.88L1222.34 369H1233.56C1232.12 366.96 1231.28 365.04 1230.74 363.12ZM1214.12 332.76C1214.66 332.7 1215.2 332.7 1215.68 332.7C1219.28 332.7 1221.56 336.12 1221.62 341.64C1221.62 349.08 1219.4 350.16 1214.12 350.16V340.26C1214.12 337.86 1214.06 335.34 1214.12 332.76ZM1246.64 366.12C1246.4 363.54 1246.34 361.02 1246.34 358.68V350.4H1246.76C1250.54 350.4 1253.66 351.9 1257.26 355.68V342.6C1253.66 346.32 1250.54 347.4 1246.76 347.4H1246.34V340.26C1246.34 337.86 1246.34 335.4 1246.58 332.82H1246.76C1254.02 333.54 1257.62 336.6 1260.32 341.46L1260.5 330H1235.72C1236.98 333.48 1237.4 337.02 1237.4 340.26V358.68C1237.4 361.92 1236.92 365.52 1235.72 369H1260.44L1260.26 357.54C1257.74 362.22 1254.56 365.76 1246.64 366.12Z" fill="#41212A"/>
<line x1="120" y1="411.5" x2="1311" y2="411.5" stroke="#41212A" stroke-width="3"/>
<line x1="118" y1="281.5" x2="1309" y2="281.5" stroke="#41212A" stroke-width="3"/>
<path d="M178.98 522.88H178.08C177.66 520.42 177.6 517.96 177.6 515.68V497.26C177.6 494.02 177.84 490.48 178.74 487H166.92C168.18 490.48 168.66 494.02 168.66 497.26V515.68C168.66 518.92 168.18 522.52 167.04 526H190.14L190.26 514.54C187.8 519.76 183.06 522.88 178.98 522.88ZM203.183 485.68C205.823 485.68 207.563 483.64 207.563 481.12C207.563 478.6 205.823 476.5 203.183 476.5C200.603 476.5 198.863 478.6 198.863 481.12C198.863 483.64 200.603 485.68 203.183 485.68ZM213.563 485.68C216.203 485.68 217.943 483.64 217.943 481.12C217.943 478.6 216.203 476.5 213.563 476.5C210.983 476.5 209.243 478.6 209.243 481.12C209.243 483.64 210.983 485.68 213.563 485.68ZM224.363 526C222.323 523.48 221.123 520 220.043 516.7L210.263 486.52H206.183L196.403 516.7C195.143 520.48 193.763 523.72 191.783 526H199.883C199.343 525.16 198.983 523.36 198.983 521.38C198.983 519.88 199.163 518.38 199.523 517L200.543 513.4H209.063L210.023 517C210.443 518.62 210.683 520.48 210.683 522.1C210.683 523.72 210.443 525.22 209.843 526H224.363ZM201.203 511.18L204.983 497.74L208.523 511.18H201.203ZM248.29 487C249.49 490.48 249.91 494.2 249.91 497.44V511.72L238.09 493C236.83 491.14 236.05 489.82 236.05 488.44C236.05 487.96 236.17 487.48 236.35 487H226.51C227.77 489.28 228.19 492.4 228.19 495.4V515.56C228.19 518.8 227.71 522.52 226.51 526H233.23C232.09 522.52 231.61 518.8 231.61 515.56V501.04L247.99 526H253.45V497.44C253.45 494.2 253.81 490.48 255.07 487H248.29ZM275.052 506.14C278.352 509.38 279.492 515.92 279.492 522.52H279.252C273.312 522.52 267.672 513.88 267.672 503.14C267.672 494.68 269.292 490.54 273.792 490.54C277.332 490.54 280.512 494.14 283.812 499.66L286.452 487.42C284.532 486.7 282.132 486.22 278.172 486.22C267.312 486.22 259.212 493.9 259.212 507.22C259.212 518.74 265.512 526.96 275.232 526.96C279.612 526.96 283.932 525.76 286.932 523.96V506.14H275.052ZM304.149 487H291.549C292.749 490.3 293.229 493.96 293.229 497.26V515.68C293.229 518.92 292.749 522.52 291.549 526H304.329C313.869 526 321.429 519.34 321.429 505.66C321.429 491.38 312.729 487 304.149 487ZM303.549 523.3H302.529C302.229 520.66 302.169 518.02 302.169 515.68V497.26C302.169 494.86 302.229 492.4 302.289 489.82H303.669C309.549 489.82 312.129 497.56 312.129 507.4C312.129 516.1 310.509 523.3 303.549 523.3Z" fill="#41212A"/>
<path d="M178.98 685.88H178.08C177.66 683.42 177.6 680.96 177.6 678.68V660.26C177.6 657.02 177.84 653.48 178.74 650H166.92C168.18 653.48 168.66 657.02 168.66 660.26V678.68C168.66 681.92 168.18 685.52 167.04 689H190.14L190.26 677.54C187.8 682.76 183.06 685.88 178.98 685.88ZM208.403 648.5C211.523 648.5 214.103 646.94 214.103 643.58C214.103 640.28 211.523 638.72 208.403 638.72C205.223 638.72 202.703 640.28 202.703 643.58C202.703 646.94 205.223 648.5 208.403 648.5ZM208.403 641.06C210.563 641.06 211.343 642.2 211.343 643.58C211.343 644.96 210.563 646.16 208.403 646.16C206.243 646.16 205.403 644.96 205.403 643.58C205.403 642.2 206.243 641.06 208.403 641.06ZM224.363 689C222.323 686.48 221.123 683 220.043 679.7L210.263 649.52H206.183L196.403 679.7C195.143 683.48 193.763 686.72 191.783 689H199.883C199.343 688.16 198.983 686.36 198.983 684.38C198.983 682.88 199.163 681.38 199.523 680L200.543 676.4H209.063L210.023 680C210.443 681.62 210.683 683.48 210.683 685.1C210.683 686.72 210.443 688.22 209.843 689H224.363ZM201.203 674.18L204.983 660.74L208.523 674.18H201.203ZM241.124 652.7C245.264 652.7 247.724 655.16 250.424 662.66L250.184 650H221.384L221.024 662.66C223.844 655.64 226.304 652.7 230.444 652.7H231.284V678.68C231.284 681.92 230.744 685.52 229.364 689H242.144C240.644 685.52 240.224 681.92 240.224 678.68V652.7H241.124ZM282.919 650C284.119 653.48 284.539 657.2 284.539 660.44V674.72L272.719 656C271.459 654.14 270.679 652.82 270.679 651.44C270.679 650.96 270.799 650.48 270.979 650H261.139C262.399 652.28 262.819 655.4 262.819 658.4V678.56C262.819 681.8 262.339 685.52 261.139 689H267.859C266.719 685.52 266.239 681.8 266.239 678.56V664.04L282.619 689H288.079V660.44C288.079 657.2 288.439 653.48 289.699 650H282.919ZM321.081 683.12L318.921 675.5C317.901 672.02 316.941 670.94 314.121 670.76C317.241 669.38 321.261 666.26 321.261 660.5C321.261 652.7 315.141 650 308.481 650H293.541C294.861 653.48 295.281 657.02 295.281 660.26V678.68C295.281 681.92 294.861 685.52 293.661 689H306.021C305.061 685.52 304.461 681.92 304.461 678.68V672.56C305.241 672.56 306.081 672.56 306.741 672.62C307.881 672.8 308.661 674.12 309.381 676.88L312.681 689H323.901C322.461 686.96 321.621 685.04 321.081 683.12ZM304.461 652.76C305.001 652.7 305.541 652.7 306.021 652.7C309.621 652.7 311.901 656.12 311.961 661.64C311.961 669.08 309.741 670.16 304.461 670.16V660.26C304.461 657.86 304.401 655.34 304.461 652.76Z" fill="#41212A"/>
<path d="M422 476C422 467.716 428.716 461 437 461H658C666.284 461 673 467.716 673 476V540C673 548.284 666.284 555 658 555H437C428.716 555 422 548.284 422 540V476Z" fill="#FFFF99"/>
<path d="M457.363 487.6C459.963 486.72 462.683 484.84 462.683 481.16C462.683 476.64 458.843 474.56 454.643 474.56C450.363 474.56 446.083 476.76 446.083 481.88V483.32L452.163 483.88C451.523 482.16 451.243 480.76 451.243 479.72C451.243 477.56 452.323 476.56 453.683 476.56C455.803 476.56 456.523 478.72 456.523 481.84C456.523 484.4 455.883 486.88 453.603 486.88H451.683L451.163 489.12C451.843 489 452.483 488.96 453.083 488.96C455.723 488.96 457.403 491.68 457.403 495.56C457.403 497.72 456.563 499.04 455.323 499.04C453.683 499.04 452.363 497.12 450.563 493.12L445.283 495.8C447.083 500.12 450.523 501.48 453.923 501.48C459.083 501.48 463.403 498.64 463.403 493.68C463.403 489.6 460.483 488.12 457.363 487.6ZM475.411 501.52C481.371 501.52 485.571 496.44 485.571 488C485.571 480.2 482.011 474.48 475.771 474.48C469.811 474.48 465.611 479.56 465.611 487.96C465.611 495.8 469.211 501.52 475.411 501.52ZM476.371 499.08C473.491 499.08 471.971 494.28 471.891 485.64C471.891 480.68 472.251 476.92 474.811 476.92C477.691 476.92 479.211 481.72 479.291 490.36C479.291 495.32 478.931 499.08 476.371 499.08ZM500.095 477.64C503.255 477.64 506.375 481.36 507.855 484.32L509.015 475.28C507.375 474.92 505.335 474.6 503.655 474.6C497.455 474.6 493.495 478.44 493.495 482.8C493.495 486.44 495.375 487.76 498.055 489.4L502.495 492.12C504.975 493.64 505.695 494.76 505.695 496.44C505.695 497.64 504.815 498.64 503.455 498.64C501.415 498.64 499.455 496.84 497.575 492.08L492.895 495.12C494.335 499.6 497.975 501.64 501.375 501.64C505.935 501.64 509.735 498 509.735 493.16C509.735 489.88 507.735 488.04 505.535 486.6L502.255 484.52C498.935 482.4 497.975 481.24 497.975 479.56C497.975 478.4 498.855 477.64 500.095 477.64ZM519.298 499.08C519.138 497.36 519.098 495.68 519.098 494.12V488.6H519.378C521.898 488.6 523.978 489.6 526.378 492.12V483.4C523.978 485.88 521.898 486.6 519.378 486.6H519.098V481.84C519.098 480.24 519.098 478.6 519.258 476.88H519.378C524.218 477.36 526.618 479.4 528.418 482.64L528.538 475H512.018C512.858 477.32 513.138 479.68 513.138 481.84V494.12C513.138 496.28 512.818 498.68 512.018 501H528.498L528.378 493.36C526.698 496.48 524.578 498.84 519.298 499.08ZM546.885 487.76C546.725 487.24 546.045 486.96 544.765 486.96H541.285L544.485 482.48C546.765 479.28 549.005 476.72 551.485 475H544.685C544.805 477.36 544.325 479.12 542.685 481.72L538.205 488.76V481.84C538.205 479.68 538.485 477.32 539.325 475H530.925C531.805 477.32 532.085 479.68 532.085 481.84V494.12C532.085 496.28 531.805 498.68 531.005 501H539.285C538.485 498.68 538.205 496.28 538.205 494.12V491.28L540.125 488.56C540.205 488.68 540.285 488.8 540.325 488.96L543.765 501H551.485C550.525 499.76 549.725 497.92 549.205 495.96L546.885 487.76ZM567.435 475C568.435 477.32 568.635 479.8 568.635 481.96V493.28C568.635 496.48 567.275 498.12 564.555 498.12C561.755 498.12 560.115 496.48 560.115 493.28V481.96C560.115 479.8 560.155 477.32 561.075 475H553.035C553.875 477.32 554.115 479.8 554.115 481.96V493.6C554.115 496.88 555.715 501.64 562.515 501.64C569.475 501.64 570.995 496.88 570.995 493.56V481.96C570.995 479.8 571.195 477.32 572.115 475H567.435ZM589.234 475C590.034 477.32 590.314 479.8 590.314 481.96V491.48L582.434 479C581.594 477.76 581.074 476.88 581.074 475.96C581.074 475.64 581.154 475.32 581.274 475H574.714C575.554 476.52 575.834 478.6 575.834 480.6V494.04C575.834 496.2 575.514 498.68 574.714 501H579.194C578.434 498.68 578.114 496.2 578.114 494.04V484.36L589.034 501H592.674V481.96C592.674 479.8 592.914 477.32 593.754 475H589.234ZM604.715 475H596.315C597.115 477.2 597.435 479.64 597.435 481.84V494.12C597.435 496.28 597.115 498.68 596.315 501H604.835C611.195 501 616.235 496.56 616.235 487.44C616.235 477.92 610.435 475 604.715 475ZM604.315 499.2H603.635C603.435 497.44 603.395 495.68 603.395 494.12V481.84C603.395 480.24 603.435 478.6 603.475 476.88H604.395C608.315 476.88 610.035 482.04 610.035 488.6C610.035 494.4 608.955 499.2 604.315 499.2ZM626.251 499.08C626.091 497.36 626.051 495.68 626.051 494.12V488.6H626.331C628.851 488.6 630.931 489.6 633.331 492.12V483.4C630.931 485.88 628.851 486.6 626.331 486.6H626.051V481.84C626.051 480.24 626.051 478.6 626.211 476.88H626.331C631.171 477.36 633.571 479.4 635.371 482.64L635.491 475H618.971C619.811 477.32 620.091 479.68 620.091 481.84V494.12C620.091 496.28 619.771 498.68 618.971 501H635.451L635.331 493.36C633.651 496.48 631.531 498.84 626.251 499.08ZM656.238 497.08L654.798 492C654.118 489.68 653.478 488.96 651.598 488.84C653.678 487.92 656.358 485.84 656.358 482C656.358 476.8 652.278 475 647.838 475H637.878C638.758 477.32 639.038 479.68 639.038 481.84V494.12C639.038 496.28 638.758 498.68 637.958 501H646.198C645.558 498.68 645.158 496.28 645.158 494.12V490.04C645.678 490.04 646.238 490.04 646.678 490.08C647.438 490.2 647.958 491.08 648.438 492.92L650.638 501H658.118C657.158 499.64 656.598 498.36 656.238 497.08ZM645.158 476.84C645.518 476.8 645.878 476.8 646.198 476.8C648.598 476.8 650.118 479.08 650.158 482.76C650.158 487.72 648.678 488.44 645.158 488.44V481.84C645.158 480.24 645.118 478.56 645.158 476.84ZM505.888 548H514.008C513.208 545.68 512.928 543.28 512.928 541.12V528.84C512.928 526.68 513.208 524.32 514.088 522H505.768C506.648 524.32 506.968 526.68 506.968 528.84V541.12C506.968 543.28 506.648 545.68 505.888 548ZM523.867 523.84C527.827 524.12 530.827 526.44 532.627 529.64L532.707 522H516.667C517.547 524.32 517.787 526.68 517.787 528.84V541.12C517.787 543.28 517.507 545.68 516.667 548H524.667C523.827 545.68 523.747 543.28 523.747 541.12V536.12C526.947 536.44 529.027 537.84 530.667 540.12V530.36C529.027 532.56 526.947 533.76 523.747 534V528.84C523.747 527.24 523.747 525.56 523.867 523.84ZM553.308 544.08L551.868 539C551.188 536.68 550.548 535.96 548.668 535.84C550.748 534.92 553.428 532.84 553.428 529C553.428 523.8 549.348 522 544.908 522H534.948C535.828 524.32 536.108 526.68 536.108 528.84V541.12C536.108 543.28 535.828 545.68 535.028 548H543.268C542.628 545.68 542.228 543.28 542.228 541.12V537.04C542.748 537.04 543.308 537.04 543.748 537.08C544.508 537.2 545.028 538.08 545.508 539.92L547.708 548H555.188C554.228 546.64 553.668 545.36 553.308 544.08ZM542.228 523.84C542.588 523.8 542.948 523.8 543.268 523.8C545.668 523.8 547.188 526.08 547.228 529.76C547.228 534.72 545.748 535.44 542.228 535.44V528.84C542.228 527.24 542.188 525.56 542.228 523.84ZM566.119 521C568.199 521 569.919 519.96 569.919 517.72C569.919 515.52 568.199 514.48 566.119 514.48C563.999 514.48 562.319 515.52 562.319 517.72C562.319 519.96 563.999 521 566.119 521ZM566.119 516.04C567.559 516.04 568.079 516.8 568.079 517.72C568.079 518.64 567.559 519.44 566.119 519.44C564.679 519.44 564.119 518.64 564.119 517.72C564.119 516.8 564.679 516.04 566.119 516.04ZM576.759 548C575.399 546.32 574.599 544 573.879 541.8L567.359 521.68H564.639L558.119 541.8C557.279 544.32 556.359 546.48 555.039 548H560.439C560.079 547.44 559.839 546.24 559.839 544.92C559.839 543.92 559.959 542.92 560.199 542L560.879 539.6H566.559L567.199 542C567.479 543.08 567.639 544.32 567.639 545.4C567.639 546.48 567.479 547.48 567.079 548H576.759ZM561.319 538.12L563.839 529.16L566.199 538.12H561.319ZM592.71 522C593.51 524.32 593.79 526.8 593.79 528.96V538.48L585.91 526C585.07 524.76 584.55 523.88 584.55 522.96C584.55 522.64 584.63 522.32 584.75 522H578.19C579.03 523.52 579.31 525.6 579.31 527.6V541.04C579.31 543.2 578.99 545.68 578.19 548H582.67C581.91 545.68 581.59 543.2 581.59 541.04V531.36L592.51 548H596.15V528.96C596.15 526.8 596.39 524.32 597.23 522H592.71Z" fill="#41212A"/>
<mask id="mask4_39_164" style="mask-type:alpha" maskUnits="userSpaceOnUse" x="700" y="462" width="93" height="93">
<rect x="700" y="462" width="92.5091" height="92.5091" rx="15" fill="#D9D9D9"/>
</mask>
<g mask="url(#mask4_39_164)">
<path d="M731.222 518.565C729.732 520.056 727.316 520.056 725.825 518.565V518.565C724.335 517.075 724.335 514.659 725.825 513.169L735.648 503.347C741.506 497.489 751.003 497.489 756.861 503.347L766.684 513.169C768.174 514.659 768.174 517.075 766.684 518.565V518.565C765.193 520.056 762.777 520.056 761.287 518.565L755.12 512.398C750.224 507.502 742.285 507.502 737.389 512.398L731.222 518.565Z" fill="#41212A"/>
</g>
<path d="M793.98 525.88H793.08C792.66 523.42 792.6 520.96 792.6 518.68V500.26C792.6 497.02 792.84 493.48 793.74 490H781.92C783.18 493.48 783.66 497.02 783.66 500.26V518.68C783.66 521.92 783.18 525.52 782.04 529H805.14L805.26 517.54C802.8 522.76 798.06 525.88 793.98 525.88ZM818.183 488.68C820.823 488.68 822.563 486.64 822.563 484.12C822.563 481.6 820.823 479.5 818.183 479.5C815.603 479.5 813.863 481.6 813.863 484.12C813.863 486.64 815.603 488.68 818.183 488.68ZM828.563 488.68C831.203 488.68 832.943 486.64 832.943 484.12C832.943 481.6 831.203 479.5 828.563 479.5C825.983 479.5 824.243 481.6 824.243 484.12C824.243 486.64 825.983 488.68 828.563 488.68ZM839.363 529C837.323 526.48 836.123 523 835.043 519.7L825.263 489.52H821.183L811.403 519.7C810.143 523.48 808.763 526.72 806.783 529H814.883C814.343 528.16 813.983 526.36 813.983 524.38C813.983 522.88 814.163 521.38 814.523 520L815.543 516.4H824.063L825.023 520C825.443 521.62 825.683 523.48 825.683 525.1C825.683 526.72 825.443 528.22 824.843 529H839.363ZM816.203 514.18L819.983 500.74L823.523 514.18H816.203ZM863.29 490C864.49 493.48 864.91 497.2 864.91 500.44V514.72L853.09 496C851.83 494.14 851.05 492.82 851.05 491.44C851.05 490.96 851.17 490.48 851.35 490H841.51C842.77 492.28 843.19 495.4 843.19 498.4V518.56C843.19 521.8 842.71 525.52 841.51 529H848.23C847.09 525.52 846.61 521.8 846.61 518.56V504.04L862.99 529H868.45V500.44C868.45 497.2 868.81 493.48 870.07 490H863.29ZM890.052 509.14C893.352 512.38 894.492 518.92 894.492 525.52H894.252C888.312 525.52 882.672 516.88 882.672 506.14C882.672 497.68 884.292 493.54 888.792 493.54C892.332 493.54 895.512 497.14 898.812 502.66L901.452 490.42C899.532 489.7 897.132 489.22 893.172 489.22C882.312 489.22 874.212 496.9 874.212 510.22C874.212 521.74 880.512 529.96 890.232 529.96C894.612 529.96 898.932 528.76 901.932 526.96V509.14H890.052ZM934.089 523.12L931.929 515.5C930.909 512.02 929.949 510.94 927.129 510.76C930.249 509.38 934.269 506.26 934.269 500.5C934.269 492.7 928.149 490 921.489 490H906.549C907.869 493.48 908.289 497.02 908.289 500.26V518.68C908.289 521.92 907.869 525.52 906.669 529H919.029C918.069 525.52 917.469 521.92 917.469 518.68V512.56C918.249 512.56 919.089 512.56 919.749 512.62C920.889 512.8 921.669 514.12 922.389 516.88L925.689 529H936.909C935.469 526.96 934.629 525.04 934.089 523.12ZM917.469 492.76C918.009 492.7 918.549 492.7 919.029 492.7C922.629 492.7 924.909 496.12 924.969 501.64C924.969 509.08 922.749 510.16 917.469 510.16V500.26C917.469 497.86 917.409 495.34 917.469 492.76ZM949.988 526.12C949.748 523.54 949.688 521.02 949.688 518.68V510.4H950.108C953.888 510.4 957.008 511.9 960.608 515.68V502.6C957.008 506.32 953.888 507.4 950.108 507.4H949.688V500.26C949.688 497.86 949.688 495.4 949.928 492.82H950.108C957.368 493.54 960.968 496.6 963.668 501.46L963.848 490H939.068C940.328 493.48 940.748 497.02 940.748 500.26V518.68C940.748 521.92 940.268 525.52 939.068 529H963.788L963.608 517.54C961.088 522.22 957.908 525.76 949.988 526.12Z" fill="#41212A"/>
<mask id="mask5_39_164" style="mask-type:alpha" maskUnits="userSpaceOnUse" x="994" y="462" width="93" height="93">
<rect x="1086.51" y="554.509" width="92.5091" height="92.5091" rx="15" transform="rotate(-180 1086.51 554.509)" fill="#D9D9D9"/>
</mask>
<g mask="url(#mask5_39_164)">
<path d="M1055.29 497.944C1056.78 496.453 1059.19 496.453 1060.68 497.944V497.944C1062.17 499.434 1062.17 501.85 1060.68 503.34L1050.86 513.162C1045 519.02 1035.51 519.02 1029.65 513.162L1019.83 503.34C1018.34 501.85 1018.34 499.434 1019.83 497.944V497.944C1021.32 496.453 1023.73 496.453 1025.22 497.944L1031.39 504.111C1036.29 509.007 1044.22 509.007 1049.12 504.111L1055.29 497.944Z" fill="#41212A"/>
</g>
<path d="M1099.86 509.14C1099.62 508.36 1098.6 507.94 1096.68 507.94H1091.46L1096.26 501.22C1099.68 496.42 1103.04 492.58 1106.76 490H1096.56C1096.74 493.54 1096.02 496.18 1093.56 500.08L1086.84 510.64V500.26C1086.84 497.02 1087.26 493.48 1088.52 490H1075.92C1077.24 493.48 1077.66 497.02 1077.66 500.26V518.68C1077.66 521.92 1077.24 525.52 1076.04 529H1088.46C1087.26 525.52 1086.84 521.92 1086.84 518.68V514.42L1089.72 510.34C1089.84 510.52 1089.96 510.7 1090.02 510.94L1095.18 529H1106.76C1105.32 527.14 1104.12 524.38 1103.34 521.44L1099.86 509.14ZM1123.41 529.96C1132.89 529.96 1139.61 522.28 1139.61 509.44C1139.61 497.5 1133.49 489.1 1123.59 489.1C1114.17 489.1 1107.33 496.66 1107.33 509.26C1107.33 520.9 1113.45 529.96 1123.41 529.96ZM1125.15 526.06C1119.39 526.06 1117.05 515.86 1117.05 504.46C1117.05 496.36 1118.49 493 1121.85 493C1127.49 493 1129.89 503.44 1129.89 514.3C1129.89 522.1 1128.51 526.06 1125.15 526.06ZM1171.19 523.12L1169.03 515.5C1168.01 512.02 1167.05 510.94 1164.23 510.76C1167.35 509.38 1171.37 506.26 1171.37 500.5C1171.37 492.7 1165.25 490 1158.59 490H1143.65C1144.97 493.48 1145.39 497.02 1145.39 500.26V518.68C1145.39 521.92 1144.97 525.52 1143.77 529H1156.13C1155.17 525.52 1154.57 521.92 1154.57 518.68V512.56C1155.35 512.56 1156.19 512.56 1156.85 512.62C1157.99 512.8 1158.77 514.12 1159.49 516.88L1162.79 529H1174.01C1172.57 526.96 1171.73 525.04 1171.19 523.12ZM1154.57 492.76C1155.11 492.7 1155.65 492.7 1156.13 492.7C1159.73 492.7 1162.01 496.12 1162.07 501.64C1162.07 509.08 1159.85 510.16 1154.57 510.16V500.26C1154.57 497.86 1154.51 495.34 1154.57 492.76ZM1194.13 492.7C1198.27 492.7 1200.73 495.16 1203.43 502.66L1203.19 490H1174.39L1174.03 502.66C1176.85 495.64 1179.31 492.7 1183.45 492.7H1184.29V518.68C1184.29 521.92 1183.75 525.52 1182.37 529H1195.15C1193.65 525.52 1193.23 521.92 1193.23 518.68V492.7H1194.13ZM1232.97 529C1230.93 526.48 1229.73 523 1228.65 519.7L1218.87 489.52H1214.79L1205.01 519.7C1203.75 523.48 1202.37 526.72 1200.39 529H1208.49C1207.95 528.16 1207.59 526.36 1207.59 524.38C1207.59 522.88 1207.77 521.38 1208.13 520L1209.15 516.4H1217.67L1218.63 520C1219.05 521.62 1219.29 523.48 1219.29 525.1C1219.29 526.72 1219.05 528.22 1218.45 529H1232.97ZM1209.81 514.18L1213.59 500.74L1217.13 514.18H1209.81ZM1262.66 523.12L1260.5 515.5C1259.48 512.02 1258.52 510.94 1255.7 510.76C1258.82 509.38 1262.84 506.26 1262.84 500.5C1262.84 492.7 1256.72 490 1250.06 490H1235.12C1236.44 493.48 1236.86 497.02 1236.86 500.26V518.68C1236.86 521.92 1236.44 525.52 1235.24 529H1247.6C1246.64 525.52 1246.04 521.92 1246.04 518.68V512.56C1246.82 512.56 1247.66 512.56 1248.32 512.62C1249.46 512.8 1250.24 514.12 1250.96 516.88L1254.26 529H1265.48C1264.04 526.96 1263.2 525.04 1262.66 523.12ZM1246.04 492.76C1246.58 492.7 1247.12 492.7 1247.6 492.7C1251.2 492.7 1253.48 496.12 1253.54 501.64C1253.54 509.08 1251.32 510.16 1246.04 510.16V500.26C1246.04 497.86 1245.98 495.34 1246.04 492.76ZM1278.56 526.12C1278.32 523.54 1278.26 521.02 1278.26 518.68V510.4H1278.68C1282.46 510.4 1285.58 511.9 1289.18 515.68V502.6C1285.58 506.32 1282.46 507.4 1278.68 507.4H1278.26V500.26C1278.26 497.86 1278.26 495.4 1278.5 492.82H1278.68C1285.94 493.54 1289.54 496.6 1292.24 501.46L1292.42 490H1267.64C1268.9 493.48 1269.32 497.02 1269.32 500.26V518.68C1269.32 521.92 1268.84 525.52 1267.64 529H1292.36L1292.18 517.54C1289.66 522.22 1286.48 525.76 1278.56 526.12Z" fill="#41212A"/>
<line x1="116" y1="571.5" x2="1307" y2="571.5" stroke="#41212A" stroke-width="3"/>
<line x1="114" y1="441.5" x2="1305" y2="441.5" stroke="#41212A" stroke-width="3"/>
<path d="M420 636C420 627.716 426.716 621 435 621H656C664.284 621 671 627.716 671 636V700C671 708.284 664.284 715 656 715H435C426.716 715 420 708.284 420 700V636Z" fill="#FFFF99"/>
<mask id="mask6_39_164" style="mask-type:alpha" maskUnits="userSpaceOnUse" x="698" y="622" width="93" height="93">
<rect x="698" y="622" width="92.5091" height="92.5091" rx="15" fill="#D9D9D9"/>
</mask>
<g mask="url(#mask6_39_164)">
<path d="M729.222 678.565C727.732 680.056 725.316 680.056 723.825 678.565V678.565C722.335 677.075 722.335 674.659 723.825 673.169L733.648 663.347C739.506 657.489 749.003 657.489 754.861 663.347L764.684 673.169C766.174 674.659 766.174 677.075 764.684 678.565V678.565C763.193 680.056 760.777 680.056 759.287 678.565L753.12 672.398C748.224 667.502 740.285 667.502 735.389 672.398L729.222 678.565Z" fill="#41212A"/>
</g>
<path d="M789.34 653.96C794.08 653.96 798.76 659.54 800.98 663.98L802.72 650.42C800.26 649.88 797.2 649.4 794.68 649.4C785.38 649.4 779.44 655.16 779.44 661.7C779.44 667.16 782.26 669.14 786.28 671.6L792.94 675.68C796.66 677.96 797.74 679.64 797.74 682.16C797.74 683.96 796.42 685.46 794.38 685.46C791.32 685.46 788.38 682.76 785.56 675.62L778.54 680.18C780.7 686.9 786.16 689.96 791.26 689.96C798.1 689.96 803.8 684.5 803.8 677.24C803.8 672.32 800.8 669.56 797.5 667.4L792.58 664.28C787.6 661.1 786.16 659.36 786.16 656.84C786.16 655.1 787.48 653.96 789.34 653.96ZM818.145 686.12C817.905 683.54 817.845 681.02 817.845 678.68V670.4H818.265C822.045 670.4 825.165 671.9 828.765 675.68V662.6C825.165 666.32 822.045 667.4 818.265 667.4H817.845V660.26C817.845 657.86 817.845 655.4 818.085 652.82H818.265C825.525 653.54 829.125 656.6 831.825 661.46L832.005 650H807.225C808.485 653.48 808.905 657.02 808.905 660.26V678.68C808.905 681.92 808.425 685.52 807.225 689H831.945L831.765 677.54C829.245 682.22 826.065 685.76 818.145 686.12ZM857.364 650C858.564 653.48 858.984 657.2 858.984 660.44V674.72L847.164 656C845.904 654.14 845.124 652.82 845.124 651.44C845.124 650.96 845.244 650.48 845.424 650H835.584C836.844 652.28 837.264 655.4 837.264 658.4V678.56C837.264 681.8 836.784 685.52 835.584 689H842.304C841.164 685.52 840.684 681.8 840.684 678.56V664.04L857.064 689H862.524V660.44C862.524 657.2 862.884 653.48 864.144 650H857.364ZM898.886 689C896.846 686.48 895.646 683 894.566 679.7L884.786 649.52H880.706L870.926 679.7C869.666 683.48 868.286 686.72 866.306 689H874.406C873.866 688.16 873.506 686.36 873.506 684.38C873.506 682.88 873.686 681.38 874.046 680L875.066 676.4H883.586L884.546 680C884.966 681.62 885.206 683.48 885.206 685.1C885.206 686.72 884.966 688.22 884.366 689H898.886ZM875.726 674.18L879.506 660.74L883.046 674.18H875.726ZM928.573 683.12L926.413 675.5C925.393 672.02 924.433 670.94 921.613 670.76C924.733 669.38 928.753 666.26 928.753 660.5C928.753 652.7 922.633 650 915.973 650H901.033C902.353 653.48 902.773 657.02 902.773 660.26V678.68C902.773 681.92 902.353 685.52 901.153 689H913.513C912.553 685.52 911.953 681.92 911.953 678.68V672.56C912.733 672.56 913.573 672.56 914.233 672.62C915.373 672.8 916.153 674.12 916.873 676.88L920.173 689H931.393C929.953 686.96 929.113 685.04 928.573 683.12ZM911.953 652.76C912.493 652.7 913.033 652.7 913.513 652.7C917.113 652.7 919.393 656.12 919.453 661.64C919.453 669.08 917.233 670.16 911.953 670.16V660.26C911.953 657.86 911.893 655.34 911.953 652.76ZM944.473 686.12C944.233 683.54 944.173 681.02 944.173 678.68V670.4H944.593C948.373 670.4 951.493 671.9 955.093 675.68V662.6C951.493 666.32 948.373 667.4 944.593 667.4H944.173V660.26C944.173 657.86 944.173 655.4 944.413 652.82H944.593C951.853 653.54 955.453 656.6 958.153 661.46L958.333 650H933.553C934.813 653.48 935.233 657.02 935.233 660.26V678.68C935.233 681.92 934.753 685.52 933.553 689H958.273L958.093 677.54C955.573 682.22 952.393 685.76 944.473 686.12Z" fill="#41212A"/>
<mask id="mask7_39_164" style="mask-type:alpha" maskUnits="userSpaceOnUse" x="992" y="622" width="93" height="93">
<rect x="1084.51" y="714.509" width="92.5091" height="92.5091" rx="15" transform="rotate(-180 1084.51 714.509)" fill="#D9D9D9"/>
</mask>
<g mask="url(#mask7_39_164)">
<path d="M1053.29 657.944C1054.78 656.453 1057.19 656.453 1058.68 657.944V657.944C1060.17 659.434 1060.17 661.85 1058.68 663.34L1048.86 673.162C1043 679.02 1033.51 679.02 1027.65 673.162L1017.83 663.34C1016.34 661.85 1016.34 659.434 1017.83 657.944V657.944C1019.32 656.453 1021.73 656.453 1023.22 657.944L1029.39 664.111C1034.29 669.007 1042.22 669.007 1047.12 664.111L1053.29 657.944Z" fill="#41212A"/>
</g>
<path d="M1092.46 652.7C1096.6 652.7 1099.06 655.16 1101.76 662.66L1101.52 650H1072.72L1072.36 662.66C1075.18 655.64 1077.64 652.7 1081.78 652.7H1082.62V678.68C1082.62 681.92 1082.08 685.52 1080.7 689H1093.48C1091.98 685.52 1091.56 681.92 1091.56 678.68V652.7H1092.46ZM1104.28 689H1116.46C1115.26 685.52 1114.84 681.92 1114.84 678.68V660.26C1114.84 657.02 1115.26 653.48 1116.58 650H1104.1C1105.42 653.48 1105.9 657.02 1105.9 660.26V678.68C1105.9 681.92 1105.42 685.52 1104.28 689ZM1133.04 650H1120.44C1121.64 653.3 1122.12 656.96 1122.12 660.26V678.68C1122.12 681.92 1121.64 685.52 1120.44 689H1133.22C1142.76 689 1150.32 682.34 1150.32 668.66C1150.32 654.38 1141.62 650 1133.04 650ZM1132.44 686.3H1131.42C1131.12 683.66 1131.06 681.02 1131.06 678.68V660.26C1131.06 657.86 1131.12 655.4 1131.18 652.82H1132.56C1138.44 652.82 1141.02 660.56 1141.02 670.4C1141.02 679.1 1139.4 686.3 1132.44 686.3ZM1154.61 689H1166.79C1165.59 685.52 1165.17 681.92 1165.17 678.68V660.26C1165.17 657.02 1165.59 653.48 1166.91 650H1154.43C1155.75 653.48 1156.23 657.02 1156.23 660.26V678.68C1156.23 681.92 1155.75 685.52 1154.61 689ZM1186.92 669.14C1190.22 672.38 1191.36 678.92 1191.36 685.52H1191.12C1185.18 685.52 1179.54 676.88 1179.54 666.14C1179.54 657.68 1181.16 653.54 1185.66 653.54C1189.2 653.54 1192.38 657.14 1195.68 662.66L1198.32 650.42C1196.4 649.7 1194 649.22 1190.04 649.22C1179.18 649.22 1171.08 656.9 1171.08 670.22C1171.08 681.74 1177.38 689.96 1187.1 689.96C1191.48 689.96 1195.8 688.76 1198.8 686.96V669.14H1186.92ZM1234.2 689C1232.16 686.48 1230.96 683 1229.88 679.7L1220.1 649.52H1216.02L1206.24 679.7C1204.98 683.48 1203.6 686.72 1201.62 689H1209.72C1209.18 688.16 1208.82 686.36 1208.82 684.38C1208.82 682.88 1209 681.38 1209.36 680L1210.38 676.4H1218.9L1219.86 680C1220.28 681.62 1220.52 683.48 1220.52 685.1C1220.52 686.72 1220.28 688.22 1219.68 689H1234.2ZM1211.04 674.18L1214.82 660.74L1218.36 674.18H1211.04ZM1263.88 683.12L1261.72 675.5C1260.7 672.02 1259.74 670.94 1256.92 670.76C1260.04 669.38 1264.06 666.26 1264.06 660.5C1264.06 652.7 1257.94 650 1251.28 650H1236.34C1237.66 653.48 1238.08 657.02 1238.08 660.26V678.68C1238.08 681.92 1237.66 685.52 1236.46 689H1248.82C1247.86 685.52 1247.26 681.92 1247.26 678.68V672.56C1248.04 672.56 1248.88 672.56 1249.54 672.62C1250.68 672.8 1251.46 674.12 1252.18 676.88L1255.48 689H1266.7C1265.26 686.96 1264.42 685.04 1263.88 683.12ZM1247.26 652.76C1247.8 652.7 1248.34 652.7 1248.82 652.7C1252.42 652.7 1254.7 656.12 1254.76 661.64C1254.76 669.08 1252.54 670.16 1247.26 670.16V660.26C1247.26 657.86 1247.2 655.34 1247.26 652.76ZM1279.78 686.12C1279.54 683.54 1279.48 681.02 1279.48 678.68V670.4H1279.9C1283.68 670.4 1286.8 671.9 1290.4 675.68V662.6C1286.8 666.32 1283.68 667.4 1279.9 667.4H1279.48V660.26C1279.48 657.86 1279.48 655.4 1279.72 652.82H1279.9C1287.16 653.54 1290.76 656.6 1293.46 661.46L1293.64 650H1268.86C1270.12 653.48 1270.54 657.02 1270.54 660.26V678.68C1270.54 681.92 1270.06 685.52 1268.86 689H1293.58L1293.4 677.54C1290.88 682.22 1287.7 685.76 1279.78 686.12Z" fill="#41212A"/>
<line x1="114" y1="731.5" x2="1305" y2="731.5" stroke="#41212A" stroke-width="3"/>
<line x1="112" y1="601.5" x2="1303" y2="601.5" stroke="#41212A" stroke-width="3"/>
<path d="M465.8 683.5L467.54 681.88C475.94 674.08 481.28 668.68 481.28 661.9C481.28 655.12 476.18 651.34 469.28 651.34C462.68 651.34 456.26 655.3 456.26 663.22V665.62L465.8 666.34C464.48 663.76 463.76 661.18 463.76 659.2C463.76 656.32 465.08 654.4 467.6 654.4C470.84 654.4 471.92 658.06 471.92 661.96C471.92 669.64 470.54 672.76 460.28 685.42L455.66 691H480.44L481.76 680.32C478.94 682.6 475.16 683.26 465.8 683.5ZM494.014 691H506.194C504.994 687.52 504.574 683.92 504.574 680.68V662.26C504.574 659.02 504.994 655.48 506.314 652H493.834C495.154 655.48 495.634 659.02 495.634 662.26V680.68C495.634 683.92 495.154 687.52 494.014 691ZM520.982 654.76C526.922 655.18 531.422 658.66 534.122 663.46L534.242 652H510.182C511.502 655.48 511.862 659.02 511.862 662.26V680.68C511.862 683.92 511.442 687.52 510.182 691H522.182C520.922 687.52 520.802 683.92 520.802 680.68V673.18C525.602 673.66 528.722 675.76 531.182 679.18V664.54C528.722 667.84 525.602 669.64 520.802 670V662.26C520.802 659.86 520.802 657.34 520.982 654.76ZM565.144 685.12L562.984 677.5C561.964 674.02 561.004 672.94 558.184 672.76C561.304 671.38 565.324 668.26 565.324 662.5C565.324 654.7 559.204 652 552.544 652H537.604C538.924 655.48 539.344 659.02 539.344 662.26V680.68C539.344 683.92 538.924 687.52 537.724 691H550.084C549.124 687.52 548.524 683.92 548.524 680.68V674.56C549.304 674.56 550.144 674.56 550.804 674.62C551.944 674.8 552.724 676.12 553.444 678.88L556.744 691H567.964C566.524 688.96 565.684 687.04 565.144 685.12ZM548.524 654.76C549.064 654.7 549.604 654.7 550.084 654.7C553.684 654.7 555.964 658.12 556.024 663.64C556.024 671.08 553.804 672.16 548.524 672.16V662.26C548.524 659.86 548.464 657.34 548.524 654.76ZM584.36 650.5C587.48 650.5 590.06 648.94 590.06 645.58C590.06 642.28 587.48 640.72 584.36 640.72C581.18 640.72 578.66 642.28 578.66 645.58C578.66 648.94 581.18 650.5 584.36 650.5ZM584.36 643.06C586.52 643.06 587.3 644.2 587.3 645.58C587.3 646.96 586.52 648.16 584.36 648.16C582.2 648.16 581.36 646.96 581.36 645.58C581.36 644.2 582.2 643.06 584.36 643.06ZM600.32 691C598.28 688.48 597.08 685 596 681.7L586.22 651.52H582.14L572.36 681.7C571.1 685.48 569.72 688.72 567.74 691H575.84C575.3 690.16 574.94 688.36 574.94 686.38C574.94 684.88 575.12 683.38 575.48 682L576.5 678.4H585.02L585.98 682C586.4 683.62 586.64 685.48 586.64 687.1C586.64 688.72 586.4 690.22 585.8 691H600.32ZM577.16 676.18L580.94 662.74L584.48 676.18H577.16ZM624.247 652C625.447 655.48 625.867 659.2 625.867 662.44V676.72L614.047 658C612.787 656.14 612.007 654.82 612.007 653.44C612.007 652.96 612.127 652.48 612.307 652H602.467C603.727 654.28 604.147 657.4 604.147 660.4V680.56C604.147 683.8 603.667 687.52 602.467 691H609.187C608.047 687.52 607.567 683.8 607.567 680.56V666.04L623.947 691H629.407V662.44C629.407 659.2 629.767 655.48 631.027 652H624.247Z" fill="#41212A"/>
</svg>
