<svg width="747" height="254" viewBox="0 0 747 254" fill="none" xmlns="http://www.w3.org/2000/svg">
<path d="M111.06 74.1C111.06 64.92 111.6 54.84 115.92 48H81.18C82.44 49.8 82.98 53.22 82.98 57.18C82.98 62.58 81.9 69.42 80.1 75L63.18 127.38L46.08 75C44.1 68.88 42.66 61.86 42.66 56.1C42.66 52.68 43.2 49.62 44.64 48H5.76C9.72 54.84 10.62 65.1 10.62 74.1V133.68C10.62 143.4 9.72 154.56 5.76 165H25.56C21.78 154.56 20.7 143.4 20.7 133.68V84.36L48.24 165H59.76L87.48 85.08V133.68C87.3 143.4 86.22 154.56 82.62 165H115.92C112.14 154.56 111.06 143.4 111.06 133.68V74.1ZM220.101 165C213.981 157.44 210.381 147 207.141 137.1L177.801 46.56H165.561L136.221 137.1C132.441 148.44 128.301 158.16 122.361 165H146.661C145.041 162.48 143.961 157.08 143.961 151.14C143.961 146.64 144.501 142.14 145.581 138L148.641 127.2H174.201L177.081 138C178.341 142.86 179.061 148.44 179.061 153.3C179.061 158.16 178.341 162.66 176.541 165H220.101ZM150.621 120.54L161.961 80.22L172.581 120.54H150.621ZM270.567 105.42C280.467 115.14 283.887 134.76 283.887 154.56H283.167C265.347 154.56 248.427 128.64 248.427 96.42C248.427 71.04 253.287 58.62 266.787 58.62C277.407 58.62 286.947 69.42 296.847 85.98L304.767 49.26C299.007 47.1 291.807 45.66 279.927 45.66C247.347 45.66 223.047 68.7 223.047 108.66C223.047 143.22 241.947 167.88 271.107 167.88C284.247 167.88 297.207 164.28 306.207 158.88V105.42H270.567ZM368.477 105.42C378.377 115.14 381.797 134.76 381.797 154.56H381.077C363.257 154.56 346.337 128.64 346.337 96.42C346.337 71.04 351.197 58.62 364.697 58.62C375.317 58.62 384.857 69.42 394.757 85.98L402.677 49.26C396.917 47.1 389.717 45.66 377.837 45.66C345.257 45.66 320.957 68.7 320.957 108.66C320.957 143.22 339.857 167.88 369.017 167.88C382.157 167.88 395.117 164.28 404.117 158.88V105.42H368.477ZM418.507 165H455.047C451.447 154.56 450.187 143.76 450.187 134.04V78.78C450.187 69.06 451.447 58.44 455.407 48H417.967C421.927 58.44 423.367 69.06 423.367 78.78V134.04C423.367 143.76 421.927 154.56 418.507 165ZM515.97 167.88C544.41 167.88 564.57 144.84 564.57 106.32C564.57 70.5 546.21 45.3 516.51 45.3C488.25 45.3 467.73 67.98 467.73 105.78C467.73 140.7 486.09 167.88 515.97 167.88ZM521.19 156.18C503.91 156.18 496.89 125.58 496.89 91.38C496.89 67.08 501.21 57 511.29 57C528.21 57 535.41 88.32 535.41 120.9C535.41 144.3 531.27 156.18 521.19 156.18ZM612.878 155.64H610.178C608.918 148.26 608.738 140.88 608.738 134.04V78.78C608.738 69.06 609.458 58.44 612.158 48H576.698C580.478 58.44 581.918 69.06 581.918 78.78V134.04C581.918 143.76 580.478 154.56 577.058 165H646.358L646.718 130.62C639.338 146.28 625.118 155.64 612.878 155.64ZM689.086 156.36C688.366 148.62 688.186 141.06 688.186 134.04V109.2H689.446C700.786 109.2 710.146 113.7 720.946 125.04V85.8C710.146 96.96 700.786 100.2 689.446 100.2H688.186V78.78C688.186 71.58 688.186 64.2 688.906 56.46H689.446C711.226 58.62 722.026 67.8 730.126 82.38L730.666 48H656.326C660.106 58.44 661.366 69.06 661.366 78.78V134.04C661.366 143.76 659.926 154.56 656.326 165H730.486L729.946 130.62C722.386 144.66 712.846 155.28 689.086 156.36Z" fill="#41212A"/>
<path d="M80.05 215.45C82.8 218.15 83.75 223.6 83.75 229.1H83.55C78.6 229.1 73.9 221.9 73.9 212.95C73.9 205.9 75.25 202.45 79 202.45C81.95 202.45 84.6 205.45 87.35 210.05L89.55 199.85C87.95 199.25 85.95 198.85 82.65 198.85C73.6 198.85 66.85 205.25 66.85 216.35C66.85 225.95 72.1 232.8 80.2 232.8C83.85 232.8 87.45 231.8 89.95 230.3V215.45H80.05ZM93.9473 232H104.097C103.097 229.1 102.747 226.1 102.747 223.4V208.05C102.747 205.35 103.097 202.4 104.197 199.5H93.7973C94.8973 202.4 95.2973 205.35 95.2973 208.05V223.4C95.2973 226.1 94.8973 229.1 93.9473 232ZM115.27 202.8C119.22 202.8 123.12 207.45 124.97 211.15L126.42 199.85C124.37 199.4 121.82 199 119.72 199C111.97 199 107.02 203.8 107.02 209.25C107.02 213.8 109.37 215.45 112.72 217.5L118.27 220.9C121.37 222.8 122.27 224.2 122.27 226.3C122.27 227.8 121.17 229.05 119.47 229.05C116.92 229.05 114.47 226.8 112.12 220.85L106.27 224.65C108.07 230.25 112.62 232.8 116.87 232.8C122.57 232.8 127.32 228.25 127.32 222.2C127.32 218.1 124.82 215.8 122.07 214L117.97 211.4C113.82 208.75 112.62 207.3 112.62 205.2C112.62 203.75 113.72 202.8 115.27 202.8ZM138.024 202.8C141.974 202.8 145.874 207.45 147.724 211.15L149.174 199.85C147.124 199.4 144.574 199 142.474 199C134.724 199 129.774 203.8 129.774 209.25C129.774 213.8 132.124 215.45 135.474 217.5L141.024 220.9C144.124 222.8 145.024 224.2 145.024 226.3C145.024 227.8 143.924 229.05 142.224 229.05C139.674 229.05 137.224 226.8 134.874 220.85L129.024 224.65C130.824 230.25 135.374 232.8 139.624 232.8C145.324 232.8 150.074 228.25 150.074 222.2C150.074 218.1 147.574 215.8 144.824 214L140.724 211.4C136.574 208.75 135.374 207.3 135.374 205.2C135.374 203.75 136.474 202.8 138.024 202.8ZM177.311 232C175.611 229.9 174.611 227 173.711 224.25L165.561 199.1H162.161L154.011 224.25C152.961 227.4 151.811 230.1 150.161 232H156.911C156.461 231.3 156.161 229.8 156.161 228.15C156.161 226.9 156.311 225.65 156.611 224.5L157.461 221.5H164.561L165.361 224.5C165.711 225.85 165.911 227.4 165.911 228.75C165.911 230.1 165.711 231.35 165.211 232H177.311ZM158.011 219.65L161.161 208.45L164.111 219.65H158.011ZM204.396 199.5C204.846 200.2 205.146 201.7 205.146 203.35C205.146 204.55 204.946 205.85 204.646 207L200.146 223L195.946 207C195.596 205.6 195.396 204.1 195.396 202.75C195.396 201.35 195.596 200.15 196.046 199.5H183.996C185.646 201.6 186.696 204.5 187.596 207.25L195.696 232.35H199.096L207.296 207.25C208.296 204.1 209.446 201.4 211.096 199.5H204.396ZM221.794 229.6C221.594 227.45 221.544 225.35 221.544 223.4V216.5H221.894C225.044 216.5 227.644 217.75 230.644 220.9V210C227.644 213.1 225.044 214 221.894 214H221.544V208.05C221.544 206.05 221.544 204 221.744 201.85H221.894C227.944 202.45 230.944 205 233.194 209.05L233.344 199.5H212.694C213.744 202.4 214.094 205.35 214.094 208.05V223.4C214.094 226.1 213.694 229.1 212.694 232H233.294L233.144 222.45C231.044 226.35 228.394 229.3 221.794 229.6ZM259.277 227.1L257.477 220.75C256.627 217.85 255.827 216.95 253.477 216.8C256.077 215.65 259.427 213.05 259.427 208.25C259.427 201.75 254.327 199.5 248.777 199.5H236.327C237.427 202.4 237.777 205.35 237.777 208.05V223.4C237.777 226.1 237.427 229.1 236.427 232H246.727C245.927 229.1 245.427 226.1 245.427 223.4V218.3C246.077 218.3 246.777 218.3 247.327 218.35C248.277 218.5 248.927 219.6 249.527 221.9L252.277 232H261.627C260.427 230.3 259.727 228.7 259.277 227.1ZM245.427 201.8C245.877 201.75 246.327 201.75 246.727 201.75C249.727 201.75 251.627 204.6 251.677 209.2C251.677 215.4 249.827 216.3 245.427 216.3V208.05C245.427 206.05 245.377 203.95 245.427 201.8ZM276.44 232.8C284.34 232.8 289.94 226.4 289.94 215.7C289.94 205.75 284.84 198.75 276.59 198.75C268.74 198.75 263.04 205.05 263.04 215.55C263.04 225.25 268.14 232.8 276.44 232.8ZM277.89 229.55C273.09 229.55 271.14 221.05 271.14 211.55C271.14 204.8 272.34 202 275.14 202C279.84 202 281.84 210.7 281.84 219.75C281.84 226.25 280.69 229.55 277.89 229.55ZM311.459 199.5C312.459 202.4 312.809 205.5 312.809 208.2V220.1L302.959 204.5C301.909 202.95 301.259 201.85 301.259 200.7C301.259 200.3 301.359 199.9 301.509 199.5H293.309C294.359 201.4 294.709 204 294.709 206.5V223.3C294.709 226 294.309 229.1 293.309 232H298.909C297.959 229.1 297.559 226 297.559 223.3V211.2L311.209 232H315.759V208.2C315.759 205.5 316.059 202.4 317.109 199.5H311.459ZM320.461 232H330.611C329.611 229.1 329.261 226.1 329.261 223.4V208.05C329.261 205.35 329.611 202.4 330.711 199.5H320.311C321.411 202.4 321.811 205.35 321.811 208.05V223.4C321.811 226.1 321.411 229.1 320.461 232ZM356.434 224.95C354.934 225.65 353.384 226.25 351.484 226.25C345.284 226.25 341.184 220.5 341.184 211.45C341.184 206.6 342.084 202.45 346.034 202.45C349.384 202.45 351.984 205.25 354.784 210L356.034 199.75C355.034 199.3 352.534 198.85 349.984 198.85C340.134 198.85 334.184 206.5 334.184 216.05C334.184 227.45 340.584 232.8 347.034 232.8C351.934 232.8 356.034 229.6 356.434 224.95ZM384.635 232C382.935 229.9 381.935 227 381.035 224.25L372.885 199.1H369.485L361.335 224.25C360.285 227.4 359.135 230.1 357.485 232H364.235C363.785 231.3 363.485 229.8 363.485 228.15C363.485 226.9 363.635 225.65 363.935 224.5L364.785 221.5H371.885L372.685 224.5C373.035 225.85 373.235 227.4 373.235 228.75C373.235 230.1 373.035 231.35 372.535 232H384.635ZM365.335 219.65L368.485 208.45L371.435 219.65H365.335ZM422.364 206.75C422.364 204.2 422.514 201.4 423.714 199.5H414.064C414.414 200 414.564 200.95 414.564 202.05C414.564 203.55 414.264 205.45 413.764 207L409.064 221.55L404.314 207C403.764 205.3 403.364 203.35 403.364 201.75C403.364 200.8 403.514 199.95 403.914 199.5H393.114C394.214 201.4 394.464 204.25 394.464 206.75V223.3C394.464 226 394.214 229.1 393.114 232H398.614C397.564 229.1 397.264 226 397.264 223.3V209.6L404.914 232H408.114L415.814 209.8V223.3C415.764 226 415.464 229.1 414.464 232H423.714C422.664 229.1 422.364 226 422.364 223.3V206.75ZM452.653 232C450.953 229.9 449.953 227 449.053 224.25L440.903 199.1H437.503L429.353 224.25C428.303 227.4 427.153 230.1 425.503 232H432.253C431.803 231.3 431.503 229.8 431.503 228.15C431.503 226.9 431.653 225.65 431.953 224.5L432.803 221.5H439.903L440.703 224.5C441.053 225.85 441.253 227.4 441.253 228.75C441.253 230.1 441.053 231.35 440.553 232H452.653ZM433.353 219.65L436.503 208.45L439.453 219.65H433.353ZM466.671 215.45C469.421 218.15 470.371 223.6 470.371 229.1H470.171C465.221 229.1 460.521 221.9 460.521 212.95C460.521 205.9 461.871 202.45 465.621 202.45C468.571 202.45 471.221 205.45 473.971 210.05L476.171 199.85C474.571 199.25 472.571 198.85 469.271 198.85C460.221 198.85 453.471 205.25 453.471 216.35C453.471 225.95 458.721 232.8 466.821 232.8C470.471 232.8 474.071 231.8 476.571 230.3V215.45H466.671ZM493.868 215.45C496.618 218.15 497.568 223.6 497.568 229.1H497.368C492.418 229.1 487.718 221.9 487.718 212.95C487.718 205.9 489.068 202.45 492.818 202.45C495.768 202.45 498.418 205.45 501.168 210.05L503.368 199.85C501.768 199.25 499.768 198.85 496.468 198.85C487.418 198.85 480.668 205.25 480.668 216.35C480.668 225.95 485.918 232.8 494.018 232.8C497.668 232.8 501.268 231.8 503.768 230.3V215.45H493.868ZM507.766 232H517.916C516.916 229.1 516.566 226.1 516.566 223.4V208.05C516.566 205.35 516.916 202.4 518.016 199.5H507.616C508.716 202.4 509.116 205.35 509.116 208.05V223.4C509.116 226.1 508.716 229.1 507.766 232ZM534.839 232.8C542.739 232.8 548.339 226.4 548.339 215.7C548.339 205.75 543.239 198.75 534.989 198.75C527.139 198.75 521.439 205.05 521.439 215.55C521.439 225.25 526.539 232.8 534.839 232.8ZM536.289 229.55C531.489 229.55 529.539 221.05 529.539 211.55C529.539 204.8 530.739 202 533.539 202C538.239 202 540.239 210.7 540.239 219.75C540.239 226.25 539.089 229.55 536.289 229.55ZM568.935 229.4H568.185C567.835 227.35 567.785 225.3 567.785 223.4V208.05C567.785 205.35 567.985 202.4 568.735 199.5H558.885C559.935 202.4 560.335 205.35 560.335 208.05V223.4C560.335 226.1 559.935 229.1 558.985 232H578.235L578.335 222.45C576.285 226.8 572.335 229.4 568.935 229.4ZM593.454 198.25C596.054 198.25 598.204 196.95 598.204 194.15C598.204 191.4 596.054 190.1 593.454 190.1C590.804 190.1 588.704 191.4 588.704 194.15C588.704 196.95 590.804 198.25 593.454 198.25ZM593.454 192.05C595.254 192.05 595.904 193 595.904 194.15C595.904 195.3 595.254 196.3 593.454 196.3C591.654 196.3 590.954 195.3 590.954 194.15C590.954 193 591.654 192.05 593.454 192.05ZM606.754 232C605.054 229.9 604.054 227 603.154 224.25L595.004 199.1H591.604L583.454 224.25C582.404 227.4 581.254 230.1 579.604 232H586.354C585.904 231.3 585.604 229.8 585.604 228.15C585.604 226.9 585.754 225.65 586.054 224.5L586.904 221.5H594.004L594.804 224.5C595.154 225.85 595.354 227.4 595.354 228.75C595.354 230.1 595.154 231.35 594.654 232H606.754ZM587.454 219.65L590.604 208.45L593.554 219.65H587.454ZM620.722 201.75C624.172 201.75 626.222 203.8 628.472 210.05L628.272 199.5H604.272L603.972 210.05C606.322 204.2 608.372 201.75 611.822 201.75H612.522V223.4C612.522 226.1 612.072 229.1 610.922 232H621.572C620.322 229.1 619.972 226.1 619.972 223.4V201.75H620.722ZM639.518 229.6C639.318 227.45 639.268 225.35 639.268 223.4V216.5H639.618C642.768 216.5 645.368 217.75 648.368 220.9V210C645.368 213.1 642.768 214 639.618 214H639.268V208.05C639.268 206.05 639.268 204 639.468 201.85H639.618C645.668 202.45 648.668 205 650.918 209.05L651.068 199.5H630.418C631.468 202.4 631.818 205.35 631.818 208.05V223.4C631.818 226.1 631.418 229.1 630.418 232H651.018L650.868 222.45C648.768 226.35 646.118 229.3 639.518 229.6ZM672.201 199.5C673.201 202.4 673.551 205.5 673.551 208.2V220.1L663.701 204.5C662.651 202.95 662.001 201.85 662.001 200.7C662.001 200.3 662.101 199.9 662.251 199.5H654.051C655.101 201.4 655.451 204 655.451 206.5V223.3C655.451 226 655.051 229.1 654.051 232H659.651C658.701 229.1 658.301 226 658.301 223.3V211.2L671.951 232H676.501V208.2C676.501 205.5 676.801 202.4 677.851 199.5H672.201Z" fill="#41212A"/>
</svg>
