<svg width="41" height="41" viewBox="0 0 41 41" fill="none" xmlns="http://www.w3.org/2000/svg">
<mask id="mask0_37_80" style="mask-type:alpha" maskUnits="userSpaceOnUse" x="0" y="0" width="41" height="41">
<rect width="41" height="41" fill="#D9D9D9"/>
</mask>
<g mask="url(#mask0_37_80)">
<path d="M17.724 27.2052C17.724 24.5858 17.9728 22.6707 18.4705 21.4601C18.9693 20.2506 19.9163 19.1049 21.3115 18.0229C22.4219 17.1403 23.2407 16.3499 23.768 15.6517C24.2942 14.9547 24.5573 14.1365 24.5573 13.1969C24.5573 12.1719 24.2082 11.3177 23.5101 10.6344C22.8131 9.95104 21.8809 9.60937 20.7135 9.60937C19.4038 9.60937 18.3578 10.0154 17.5753 10.8274C16.7918 11.6383 16.2292 12.599 15.8875 13.7094L10.3354 11.3604C11.0472 9.19653 12.2932 7.38854 14.0733 5.93646C15.8522 4.48437 18.0656 3.75833 20.7135 3.75833C23.9024 3.75833 26.351 4.66944 28.0594 6.49166C29.7677 8.31389 30.6219 10.492 30.6219 13.026C30.6219 14.7059 30.3161 16.1227 29.7045 17.2764C29.0918 18.4289 28.1163 19.6174 26.7781 20.8417C25.4399 22.0375 24.6142 22.9845 24.301 23.6826C23.9878 24.3796 23.8313 25.5538 23.8313 27.2052H17.724ZM20.7135 38.4802C19.5747 38.4802 18.5998 38.0816 17.7889 37.2844C16.9768 36.4872 16.5708 35.5191 16.5708 34.3802C16.5708 33.2128 16.9768 32.2237 17.7889 31.4128C18.5998 30.6008 19.5747 30.1948 20.7135 30.1948C21.8524 30.1948 22.8347 30.6008 23.6604 31.4128C24.4861 32.2237 24.899 33.2128 24.899 34.3802C24.899 35.5191 24.4861 36.4872 23.6604 37.2844C22.8347 38.0816 21.8524 38.4802 20.7135 38.4802Z" fill="#41212A"/>
</g>
</svg>
